<?xml version="1.0" standalone="no"?>
<!DOCTYPE svg PUBLIC "-//W3C//DTD SVG 20010904//EN"
 "http://www.w3.org/TR/2001/REC-SVG-20010904/DTD/svg10.dtd">
<svg version="1.0" xmlns="http://www.w3.org/2000/svg"
 width="811.000000pt" height="308.000000pt" viewBox="0 0 811.000000 308.000000"
 preserveAspectRatio="xMidYMid meet">

<g transform="translate(0.000000,308.000000) scale(0.100000,-0.100000)"
fill="#000000" stroke="none">
<path d="M2190 2941 c0 -6 4 -13 10 -16 6 -3 7 1 4 9 -7 18 -14 21 -14 7z"/>
<path d="M2160 2911 c-15 -30 -32 -77 -24 -68 9 9 44 87 39 87 -2 0 -9 -9 -15
-19z"/>
<path d="M2210 2909 c0 -4 7 -22 15 -40 8 -19 14 -27 14 -19 0 14 -28 72 -29
59z"/>
<path d="M7656 2852 c-2 -4 -1 -14 3 -21 7 -11 10 -11 16 0 6 9 10 8 16 -7 7
-18 8 -18 8 2 1 12 -6 25 -15 28 -20 8 -22 8 -28 -2z"/>
<path d="M2116 2815 c-3 -8 -1 -15 5 -15 6 0 7 -5 3 -12 -4 -6 -3 -8 4 -5 5 4
8 16 5 27 -6 24 -9 25 -17 5z"/>
<path d="M2247 2798 c3 -18 12 -45 20 -60 7 -15 13 -31 11 -35 -1 -5 6 -10 16
-11 16 -4 16 -1 -2 25 -12 15 -26 47 -32 71 -13 49 -22 56 -13 10z"/>
<path d="M2085 2774 c-18 -13 -42 -21 -119 -38 -15 -4 -27 -9 -24 -11 6 -6
130 24 143 35 7 6 15 7 18 3 4 -3 7 1 7 10 0 20 0 20 -25 1z"/>
<path d="M7539 2723 c-18 -20 -29 -33 -22 -29 6 3 13 3 16 -1 2 -5 2 -3 1 4
-2 10 22 28 36 25 3 0 6 8 6 19 0 10 -1 19 -1 19 -1 0 -17 -16 -36 -37z"/>
<path d="M1835 2700 l-20 -9 20 0 c11 0 29 4 40 9 l20 9 -20 0 c-11 0 -29 -4
-40 -9z"/>
<path d="M1768 2683 c6 -2 18 -2 25 0 6 3 1 5 -13 5 -14 0 -19 -2 -12 -5z"/>
<path d="M2365 2680 c86 -21 90 -22 80 -12 -5 6 -35 13 -65 16 -50 5 -52 4
-15 -4z"/>
<path d="M1728 2673 c7 -3 16 -2 19 1 4 3 -2 6 -13 5 -11 0 -14 -3 -6 -6z"/>
<path d="M1685 2660 c-3 -6 1 -7 9 -4 18 7 21 14 7 14 -6 0 -13 -4 -16 -10z"/>
<path d="M2468 2653 c7 -3 16 -2 19 1 4 3 -2 6 -13 5 -11 0 -14 -3 -6 -6z"/>
<path d="M7415 2599 c-44 -45 -53 -57 -32 -48 30 13 50 4 27 -12 -13 -9 -13
-10 0 -6 9 2 15 15 14 30 -1 16 4 27 12 27 7 0 11 6 8 13 -5 15 22 17 46 2 8
-4 12 -5 8 0 -4 4 -2 15 5 24 11 14 10 14 -5 2 -18 -13 -24 -7 -19 22 2 12 -2
9 -64 -54z m55 31 c0 -5 -5 -10 -11 -10 -5 0 -7 5 -4 10 3 6 8 10 11 10 2 0 4
-4 4 -10z"/>
<path d="M1607 2637 c3 -5 -3 -6 -15 -3 -11 4 -23 3 -26 -2 -8 -14 42 -11 54
3 7 8 5 12 -5 12 -8 0 -12 -5 -8 -10z"/>
<path d="M1643 2625 c0 -8 4 -12 9 -9 5 3 6 10 3 15 -9 13 -12 11 -12 -6z"/>
<path d="M1516 2622 c-2 -4 4 -8 15 -8 10 0 19 4 19 8 0 4 -6 8 -14 8 -8 0
-17 -4 -20 -8z"/>
<path d="M2436 2601 c-4 -5 3 -7 14 -4 23 6 26 13 6 13 -8 0 -17 -4 -20 -9z"/>
<path d="M1395 2593 c-11 -3 -24 -9 -29 -14 -5 -5 5 -4 24 1 18 5 37 7 41 4 5
-3 9 0 9 5 0 11 -11 12 -45 4z"/>
<path d="M2342 2585 c4 -4 0 -14 -10 -21 -15 -12 -15 -12 6 -7 24 6 29 18 10
29 -7 4 -10 4 -6 -1z"/>
<path d="M1805 2570 c-34 -5 -30 -7 35 -11 44 -4 79 -2 85 4 7 7 6 8 -2 3 -7
-4 -27 -3 -45 1 -18 5 -51 6 -73 3z"/>
<path d="M7470 2571 c0 -5 7 -12 16 -15 14 -5 15 -4 4 9 -14 17 -20 19 -20 6z"/>
<path d="M1300 2563 c-8 -2 -24 -8 -35 -13 -11 -5 -27 -11 -35 -13 -10 -4 -8
-6 6 -6 11 -1 24 2 28 6 3 4 12 8 19 9 23 4 62 23 47 23 -8 -1 -22 -3 -30 -6z"/>
<path d="M1720 2560 l-35 -7 32 -2 c17 0 35 4 38 9 3 6 5 9 3 9 -2 -1 -19 -5
-38 -9z"/>
<path d="M1593 2533 c9 -2 23 -2 30 0 6 3 -1 5 -18 5 -16 0 -22 -2 -12 -5z"/>
<path d="M7437 2534 c-3 -3 -3 -13 0 -21 5 -13 2 -13 -14 -5 -18 10 -20 8 -19
-10 1 -13 -6 -22 -17 -24 -12 -1 -17 2 -13 11 5 14 -18 15 -31 0 -4 -4 -2 -5
5 -1 8 5 11 1 8 -16 -3 -13 -5 -27 -5 -33 -1 -5 -6 -3 -11 5 -7 12 -9 10 -7
-7 1 -18 4 -20 20 -11 11 5 22 18 24 29 3 10 9 16 14 13 13 -8 54 34 55 57 1
21 0 22 -9 13z"/>
<path d="M1160 2513 c-19 -8 -37 -18 -40 -22 -3 -3 -14 -8 -25 -9 -38 -7 -52
-21 -18 -18 18 1 41 10 52 20 11 10 31 19 44 20 14 0 23 4 21 8 -2 3 2 9 8 11
7 3 9 5 3 5 -5 0 -26 -6 -45 -15z"/>
<path d="M1460 2505 c-46 -18 -28 -18 35 -1 30 9 40 14 25 14 -14 0 -41 -6
-60 -13z"/>
<path d="M2288 2475 c2 -14 6 -25 8 -25 2 0 4 11 4 25 0 14 -4 25 -9 25 -4 0
-6 -11 -3 -25z"/>
<path d="M1342 2471 c-44 -15 -77 -32 -61 -31 15 1 141 48 129 49 -8 0 -39 -9
-68 -18z"/>
<path d="M1963 2463 c-3 -10 -14 -38 -24 -62 -36 -82 -20 -101 49 -57 47 30
88 66 75 66 -5 0 -18 -9 -28 -20 -10 -11 -20 -18 -22 -16 -2 2 -15 -6 -28 -18
-30 -28 -55 -29 -55 -4 0 12 4 16 12 12 8 -5 9 -2 5 9 -3 9 0 23 8 31 8 7 12
16 9 18 -2 3 0 17 5 32 6 14 8 26 5 26 -2 0 -7 -8 -11 -17z"/>
<path d="M7271 2462 c-7 -13 -6 -19 2 -19 7 0 13 9 13 19 0 10 -1 18 -3 18 -1
0 -7 -8 -12 -18z"/>
<path d="M965 2425 c-22 -13 -59 -33 -82 -45 -23 -11 -47 -28 -55 -37 -11 -14
-11 -16 2 -8 8 4 22 14 32 22 9 8 22 16 30 17 7 1 23 7 34 14 12 6 25 8 29 4
5 -4 5 -2 2 4 -4 7 6 17 23 24 17 7 33 17 36 21 8 14 -8 9 -51 -16z"/>
<path d="M1220 2425 c-14 -8 -20 -14 -15 -14 6 0 21 6 35 14 14 8 21 14 15 14
-5 0 -21 -6 -35 -14z"/>
<path d="M2128 2433 c7 -3 16 -2 19 1 4 3 -2 6 -13 5 -11 0 -14 -3 -6 -6z"/>
<path d="M7296 2432 c-3 -5 1 -9 9 -9 8 0 12 4 9 9 -3 4 -7 8 -9 8 -2 0 -6 -4
-9 -8z"/>
<path d="M1115 2383 c-99 -50 -105 -61 -10 -17 87 40 91 42 84 49 -3 2 -36
-12 -74 -32z"/>
<path d="M2182 2386 c18 -18 35 -31 37 -29 6 5 -51 63 -61 63 -5 0 6 -15 24
-34z"/>
<path d="M2307 2359 c3 -35 7 -66 9 -68 9 -10 3 105 -5 118 -6 9 -7 -9 -4 -50z"/>
<path d="M7175 2390 c-3 -6 1 -7 9 -4 18 7 21 14 7 14 -6 0 -13 -4 -16 -10z"/>
<path d="M7502 2385 c4 -4 3 -16 -3 -26 -5 -11 -7 -19 -5 -19 3 0 10 9 16 19
7 15 7 22 -2 27 -7 4 -10 4 -6 -1z"/>
<path d="M7140 2360 c0 -5 4 -10 9 -10 6 0 13 5 16 10 3 6 -1 10 -9 10 -9 0
-16 -4 -16 -10z"/>
<path d="M2259 2320 c19 -16 37 -27 40 -23 3 3 0 8 -8 11 -7 2 -21 13 -29 23
-9 11 -21 19 -27 19 -5 -1 5 -14 24 -30z"/>
<path d="M7113 2337 c1 -7 -3 -11 -10 -10 -7 2 -10 -4 -6 -13 4 -11 8 -12 13
-4 4 7 13 16 20 20 8 5 7 9 -4 13 -9 4 -15 1 -13 -6z"/>
<path d="M7223 2335 c0 -8 4 -12 9 -9 5 3 6 10 3 15 -9 13 -12 11 -12 -6z"/>
<path d="M1005 2330 c-4 -6 -11 -7 -17 -4 -7 4 -8 2 -4 -4 7 -12 36 -5 36 9 0
12 -7 11 -15 -1z"/>
<path d="M773 2311 l-21 -18 29 0 c19 0 25 3 17 9 -12 7 -4 12 15 9 5 -1 6 3
2 9 -9 14 -17 12 -42 -9z"/>
<path d="M7486 2321 c-4 -6 -1 -11 6 -12 7 0 4 -4 -7 -9 -16 -7 -17 -9 -3 -9
21 -1 29 11 19 28 -6 9 -11 10 -15 2z"/>
<path d="M7190 2310 c-9 -6 -10 -10 -3 -10 6 0 15 5 18 10 8 12 4 12 -15 0z"/>
<path d="M943 2298 c-13 -6 -23 -15 -23 -20 0 -8 17 -1 50 22 20 13 1 12 -27
-2z"/>
<path d="M7057 2291 c-3 -14 -1 -18 9 -14 8 3 12 9 9 13 -3 5 1 11 7 13 8 4 7
6 -3 6 -9 1 -19 -8 -22 -18z"/>
<path d="M695 2254 c-22 -18 -35 -34 -30 -34 14 1 81 57 75 63 -3 3 -23 -10
-45 -29z"/>
<path d="M7457 2230 c-14 -30 -24 -65 -22 -77 1 -12 -1 -20 -5 -18 -10 6 -43
-82 -37 -98 4 -9 6 -9 6 1 1 7 5 11 10 7 6 -3 8 5 6 17 -4 26 20 66 32 53 5
-4 2 -10 -5 -12 -6 -3 -9 -10 -6 -15 4 -7 2 -8 -4 -4 -14 8 -14 0 -3 -29 7
-17 9 -16 15 13 4 17 12 32 18 32 6 0 8 -7 5 -15 -4 -8 -1 -17 5 -21 7 -5 9 2
4 22 -14 57 -6 88 16 66 7 -7 8 -15 1 -24 -5 -7 -6 -26 -3 -43 6 -27 8 -28 15
-10 33 81 43 115 35 115 -6 0 -10 5 -10 11 0 5 5 7 12 3 7 -4 8 -3 4 4 -4 7
-2 12 4 12 6 0 9 4 5 9 -3 5 2 17 11 25 8 9 12 16 7 17 -4 0 -16 2 -26 4 -14
3 -16 0 -7 -10 16 -19 -5 -55 -31 -55 -17 0 -20 5 -16 23 4 12 2 29 -3 37 -7
11 -15 2 -33 -40z m24 -4 c-6 -14 -13 -26 -15 -26 -6 0 1 37 9 51 12 19 16 2
6 -25z"/>
<path d="M7066 2254 c-6 -15 -4 -15 11 -3 10 7 20 15 22 16 2 2 -3 3 -11 3 -9
0 -19 -7 -22 -16z"/>
<path d="M843 2232 c-24 -15 -43 -30 -43 -35 0 -4 20 6 45 23 25 17 45 33 45
35 0 7 0 7 -47 -23z"/>
<path d="M6959 2230 l-24 -20 27 13 c16 6 28 15 28 20 0 11 -6 9 -31 -13z"/>
<path d="M536 2114 c-53 -53 -94 -99 -92 -102 3 -2 31 23 62 56 31 34 62 59
67 55 6 -3 7 -1 4 4 -9 15 29 47 45 37 7 -4 10 -3 5 1 -4 5 0 17 10 27 9 10
11 18 6 18 -6 0 -54 -43 -107 -96z"/>
<path d="M6905 2190 c-10 -11 -14 -20 -9 -20 5 0 15 9 22 20 7 11 11 20 9 20
-2 0 -12 -9 -22 -20z"/>
<path d="M6969 2193 c-13 -15 -12 -15 9 -4 23 12 28 21 13 21 -5 0 -15 -7 -22
-17z"/>
<path d="M746 2192 c-3 -6 -1 -12 6 -14 6 -2 -6 -17 -27 -34 -76 -56 -237
-232 -201 -218 9 3 16 10 16 15 0 11 152 164 208 208 23 18 42 39 42 45 0 6
-5 4 -10 -4 -8 -12 -11 -13 -19 -1 -5 8 -11 9 -15 3z"/>
<path d="M6999 2183 c-13 -16 -12 -17 4 -4 16 13 21 21 13 21 -2 0 -10 -8 -17
-17z"/>
<path d="M6362 2118 c-7 -7 -12 -16 -12 -22 0 -5 6 -2 13 9 8 10 19 15 25 11
7 -4 12 -2 12 3 0 15 -23 14 -38 -1z"/>
<path d="M6759 2083 c-13 -16 -12 -17 4 -4 16 13 21 21 13 21 -2 0 -10 -8 -17
-17z"/>
<path d="M6769 2063 c-13 -16 -12 -17 4 -4 16 13 21 21 13 21 -2 0 -10 -8 -17
-17z"/>
<path d="M6710 2055 c-7 -9 -8 -15 -2 -15 5 0 12 7 16 15 3 8 4 15 2 15 -2 0
-9 -7 -16 -15z"/>
<path d="M7466 2031 c-4 -5 -2 -12 3 -15 5 -4 12 -2 15 3 4 5 2 12 -3 15 -5 4
-12 2 -15 -3z"/>
<path d="M6411 2018 c0 -9 4 -20 9 -23 6 -3 10 -27 11 -53 1 -43 1 -45 10 -17
9 31 2 75 -11 75 -5 0 -11 8 -13 18 -4 15 -5 15 -6 0z"/>
<path d="M6666 2013 c-6 -14 -5 -15 5 -6 7 7 10 15 7 18 -3 3 -9 -2 -12 -12z"/>
<path d="M6696 2013 c-6 -14 -5 -15 5 -6 7 7 10 15 7 18 -3 3 -9 -2 -12 -12z"/>
<path d="M7444 1998 c-4 -6 -3 -8 4 -4 6 3 12 -2 14 -11 3 -16 4 -17 10 -1 8
19 -17 33 -28 16z"/>
<path d="M1125 1992 c-216 -2 -291 -5 -297 -15 -4 -6 -8 -35 -8 -64 0 -42 4
-54 19 -63 11 -5 82 -10 160 -10 l141 0 2 -397 c2 -311 6 -397 16 -399 7 -1 8
0 2 3 -5 2 -10 36 -10 74 0 54 3 68 13 63 9 -6 9 -5 0 7 -14 17 -19 304 -5
295 11 -6 10 60 -1 70 -4 4 -2 13 4 21 9 9 8 13 0 13 -19 0 -14 140 7 164 16
20 16 20 -1 7 -16 -12 -17 -11 -13 10 3 13 5 24 6 24 1 0 3 8 5 18 2 9 -1 15
-6 11 -5 -3 -9 2 -9 10 0 19 8 18 -160 21 -74 2 -140 4 -146 4 -13 1 -19 107
-6 115 5 3 170 6 366 6 231 1 356 4 356 11 0 6 -29 9 -72 7 -40 -2 -203 -4
-363 -6z"/>
<path d="M1574 1993 c10 -10 46 -11 40 -1 -3 4 -15 8 -26 8 -12 0 -18 -3 -14
-7z"/>
<path d="M2787 1993 c-16 -4 -17 -33 -15 -481 l3 -477 65 0 65 0 5 164 c3 111
9 166 16 168 7 2 60 -55 118 -126 104 -127 140 -165 118 -125 -6 11 -25 34
-42 52 -18 17 -30 32 -27 32 4 0 -9 15 -28 34 -18 19 -31 37 -28 40 4 3 1 6
-6 6 -6 0 -11 8 -9 18 2 9 -2 16 -8 15 -6 -1 -26 16 -44 38 -26 32 -29 43 -20
54 7 8 19 15 27 15 8 0 11 5 7 12 -5 8 0 9 15 5 18 -4 20 -3 11 9 -10 11 -3
23 33 61 25 26 70 74 100 106 53 56 56 57 109 57 30 0 59 -5 65 -11 7 -7 12
-6 16 5 5 14 -5 16 -69 16 -87 0 -68 14 -228 -168 -54 -61 -103 -112 -108
-112 -5 0 -7 -4 -4 -9 4 -5 0 -11 -6 -13 -10 -3 -14 -50 -18 -169 l-5 -164
-55 0 -55 0 -3 459 c-1 330 1 463 9 472 7 8 31 14 60 14 l49 0 0 -276 c-1
-152 1 -279 5 -282 3 -3 4 122 3 279 l-3 284 -50 2 c-27 0 -58 -1 -68 -4z"/>
<path d="M4611 1986 c-8 -9 -10 -142 -9 -472 l3 -458 45 -14 c59 -17 294 -27
265 -10 -11 6 -24 16 -28 22 -5 7 -6 3 -3 -8 6 -18 2 -18 -76 -13 -103 8 -137
13 -171 26 l-27 10 4 451 c2 285 7 455 13 461 14 14 98 7 99 -8 1 -7 2 -40 3
-73 0 -33 5 -60 10 -60 10 0 7 132 -3 149 -10 16 -111 14 -125 -3z"/>
<path d="M6005 1988 c-3 -7 -4 -224 -3 -483 l3 -470 25 -3 c14 -2 21 0 17 5
-5 4 -14 8 -20 8 -9 0 -13 115 -15 450 -1 248 0 460 3 471 4 19 11 21 57 20
l53 -1 3 -454 c2 -357 0 -456 -10 -463 -10 -6 -10 -8 0 -8 7 0 10 -4 7 -10 -9
-14 -49 -12 -64 2 -10 11 -11 9 -5 -5 5 -14 15 -17 43 -15 l36 3 3 474 c2 373
0 476 -10 483 -21 13 -118 10 -123 -4z"/>
<path d="M6331 1738 c1 -145 4 -292 8 -328 4 -36 7 82 7 262 -1 181 -4 328 -8
328 -5 0 -7 -118 -7 -262z"/>
<path d="M389 1947 c-39 -49 -40 -54 -21 -68 15 -12 16 -12 4 2 -10 13 -10 18
1 28 8 6 17 8 21 4 4 -4 4 0 0 10 -3 10 -1 17 5 17 6 0 11 6 11 14 0 8 6 17
13 19 6 3 8 6 2 6 -5 1 -22 -14 -36 -32z"/>
<path d="M1747 1973 c-38 -10 -58 -42 -55 -85 2 -24 9 -43 16 -46 11 -3 12 0
3 16 -24 44 2 101 47 105 12 1 22 5 22 9 0 8 -4 9 -33 1z"/>
<path d="M7355 1970 c-3 -5 -1 -10 4 -10 6 0 11 5 11 10 0 6 -2 10 -4 10 -3 0
-8 -4 -11 -10z"/>
<path d="M1615 1939 c3 -17 3 -40 -1 -51 -5 -18 -14 -19 -145 -16 -87 2 -140
-1 -142 -7 -2 -6 -10 -5 -19 2 -12 10 -15 10 -15 -1 0 -12 29 -14 160 -12 150
2 161 3 168 22 10 29 9 94 -2 94 -5 0 -7 -14 -4 -31z"/>
<path d="M6649 1943 c-13 -16 -12 -17 4 -4 16 13 21 21 13 21 -2 0 -10 -8 -17
-17z"/>
<path d="M1842 1909 c-3 -59 -31 -88 -84 -86 -20 1 -34 -1 -32 -5 3 -4 23 -7
46 -5 55 3 81 36 75 98 l-4 44 -1 -46z"/>
<path d="M6599 1948 c-5 -18 -6 -38 -1 -34 7 8 12 36 6 36 -2 0 -4 -1 -5 -2z"/>
<path d="M7334 1916 c-10 -8 -17 -16 -14 -19 3 -2 14 4 24 14 23 22 18 25 -10
5z"/>
<path d="M483 1898 c-1 -12 -10 -30 -20 -42 -10 -11 -26 -37 -36 -56 l-19 -35
21 25 c11 14 21 30 21 37 0 6 4 13 8 15 4 2 18 17 30 34 16 24 19 33 9 37 -8
3 -14 -3 -14 -15z"/>
<path d="M6565 1890 c-3 -6 1 -7 9 -4 18 7 21 14 7 14 -6 0 -13 -4 -16 -10z"/>
<path d="M6301 1874 c0 -11 3 -14 6 -6 3 7 2 16 -1 19 -3 4 -6 -2 -5 -13z"/>
<path d="M6431 1868 c1 -13 5 -34 9 -48 7 -21 8 -19 9 17 1 23 -3 45 -9 48 -6
3 -10 -4 -9 -17z"/>
<path d="M332 1868 c-7 -7 -12 -16 -12 -20 0 -5 -11 -26 -25 -48 -26 -41 -73
-151 -59 -137 5 4 18 31 31 60 12 29 27 51 33 49 6 -1 8 2 5 8 -4 6 5 29 20
51 26 40 30 60 7 37z"/>
<path d="M7395 1870 c-3 -5 -1 -10 4 -10 6 0 11 5 11 10 0 6 -2 10 -4 10 -3 0
-8 -4 -11 -10z"/>
<path d="M1765 1861 c-3 -5 -2 -12 3 -15 5 -3 9 1 9 9 0 17 -3 19 -12 6z"/>
<path d="M6533 1849 c-8 -8 -8 -18 -1 -35 9 -19 13 -21 29 -11 11 7 19 16 19
21 0 6 -5 5 -12 -2 -19 -19 -26 -14 -23 13 3 29 3 29 -12 14z"/>
<path d="M1284 1444 c1 -441 8 -396 -64 -407 -20 -3 -18 -5 8 -6 18 0 42 4 53
9 18 10 19 25 19 400 0 215 -4 391 -9 394 -5 3 -8 -162 -7 -390z"/>
<path d="M4732 1738 c0 -49 3 -88 7 -88 10 0 12 139 2 158 -7 12 -10 -8 -9
-70z"/>
<path d="M6512 1790 c0 -19 2 -27 5 -17 2 9 2 25 0 35 -3 9 -5 1 -5 -18z"/>
<path d="M7363 1805 c0 -8 4 -15 9 -15 4 0 8 4 8 9 0 6 -4 12 -8 15 -5 3 -9
-1 -9 -9z"/>
<path d="M6441 1774 c0 -11 3 -14 6 -6 3 7 2 16 -1 19 -3 4 -6 -2 -5 -13z"/>
<path d="M7231 1752 c-23 -36 -23 -36 -2 -17 15 13 24 16 29 8 5 -8 12 -8 25
2 15 11 16 14 2 25 -13 11 -14 10 -9 -4 5 -12 2 -15 -9 -10 -9 3 -13 12 -10
20 9 24 -1 15 -26 -24z"/>
<path d="M6301 1754 c0 -11 3 -14 6 -6 3 7 2 16 -1 19 -3 4 -6 -2 -5 -13z"/>
<path d="M381 1731 c-12 -16 -21 -34 -21 -40 0 -6 -6 -8 -14 -5 -8 3 -17 1
-21 -5 -3 -7 0 -8 9 -5 19 7 20 0 6 -27 -6 -10 -7 -19 -3 -19 8 1 76 130 68
130 -2 0 -13 -13 -24 -29z"/>
<path d="M6302 1375 c2 -278 5 -339 17 -343 8 -3 11 0 8 5 -3 5 -9 157 -12
338 -4 182 -9 332 -11 335 -3 2 -3 -148 -2 -335z"/>
<path d="M6440 1690 c0 -5 5 -10 11 -10 5 0 7 5 4 10 -3 6 -8 10 -11 10 -2 0
-4 -4 -4 -10z"/>
<path d="M3690 1684 c38 -8 90 -9 90 -2 0 4 -24 7 -52 7 -29 -1 -46 -3 -38 -5z"/>
<path d="M3794 1683 c4 -5 11 -8 14 -8 4 -1 17 -6 29 -13 14 -8 24 -9 28 -2 3
5 1 11 -4 11 -26 3 -30 4 -37 12 -4 4 -14 7 -22 7 -9 0 -12 -3 -8 -7z"/>
<path d="M5497 1676 c-87 -31 -144 -87 -182 -178 -12 -29 -12 -38 -3 -38 9 0
8 -3 -2 -10 -12 -7 -15 -28 -14 -92 2 -147 58 -247 170 -303 56 -29 65 -30
184 -29 76 0 135 5 150 12 23 11 21 12 -15 6 -22 -4 -74 -8 -115 -8 -57 -1
-74 2 -72 12 1 8 -2 11 -8 7 -6 -3 -7 -11 -4 -17 4 -6 -1 -8 -15 -3 -12 3 -35
8 -52 10 -34 5 -99 41 -99 56 0 6 -3 8 -7 6 -13 -8 -33 19 -33 44 0 5 -4 8 -9
5 -14 -9 -51 90 -60 162 -8 69 -6 91 13 104 7 5 6 8 -3 8 -10 0 -11 3 -2 13 6
8 8 16 5 20 -9 8 6 48 16 42 4 -3 6 3 3 14 -5 21 79 115 92 103 5 -4 5 -2 1 5
-6 10 15 23 37 23 4 0 20 6 35 13 15 7 45 15 67 16 55 4 58 11 4 11 -24 -1
-61 -7 -82 -14z"/>
<path d="M5632 1685 c3 -3 14 -7 26 -10 11 -2 34 -11 51 -19 17 -9 31 -12 31
-7 0 10 -72 41 -97 41 -9 0 -14 -2 -11 -5z"/>
<path d="M7288 1683 c7 -3 16 -2 19 1 4 3 -2 6 -13 5 -11 0 -14 -3 -6 -6z"/>
<path d="M1765 1670 c-4 -6 1 -7 12 -3 16 6 17 5 3 -13 -14 -18 -14 -18 6 -1
23 19 39 23 29 7 -4 -6 -1 -9 6 -8 9 2 12 -70 13 -299 0 -167 -1 -304 -4 -304
-3 -1 -15 -3 -28 -4 -36 -4 -37 -14 0 -11 18 2 35 4 38 5 3 0 5 141 5 311 0
265 -2 312 -15 320 -20 13 -57 13 -65 0z"/>
<path d="M2026 1673 c-3 -4 -6 -147 -6 -319 1 -233 4 -313 13 -316 25 -9 103
-8 117 1 12 8 16 48 20 215 3 137 2 202 -5 195 -6 -6 -12 -96 -15 -207 l-5
-197 -50 -1 c-27 -1 -53 4 -57 10 -4 6 -8 146 -8 312 l0 301 59 2 c33 1 62 -2
65 -7 3 -4 6 -29 8 -54 2 -28 7 -44 13 -40 10 7 16 8 35 11 6 0 9 6 8 12 -2 7
16 25 39 42 36 25 50 30 110 30 38 1 75 -3 83 -8 8 -5 21 -10 29 -12 8 -1 18
-8 23 -15 8 -10 9 -10 6 2 -7 25 -96 51 -156 45 -60 -6 -126 -36 -144 -65 -20
-31 -36 -24 -36 16 0 20 -6 40 -13 45 -17 10 -123 12 -133 2z"/>
<path d="M3613 1665 c-92 -40 -163 -140 -178 -250 -8 -63 10 -175 36 -226 22
-44 33 -52 19 -13 -8 19 -7 31 2 43 12 14 11 14 -4 3 -15 -12 -18 -9 -26 25
-12 49 -16 199 -5 215 4 7 8 20 10 28 4 28 28 66 68 105 43 43 109 80 125 70
6 -3 10 -1 10 4 0 15 -18 13 -57 -4z"/>
<path d="M4180 1671 c0 -6 4 -12 8 -15 5 -3 9 1 9 9 0 8 -4 15 -9 15 -4 0 -8
-4 -8 -9z"/>
<path d="M4215 1670 c4 -6 11 -8 16 -4 14 8 39 -15 39 -38 0 -10 4 -17 9 -14
4 3 6 17 4 31 -3 13 -9 22 -14 19 -5 -3 -9 0 -9 5 0 6 -12 11 -26 11 -14 0
-23 -4 -19 -10z"/>
<path d="M4395 1661 c-40 -18 -85 -68 -85 -93 1 -13 7 -6 40 42 32 47 153 80
166 45 4 -8 0 -23 -7 -32 -12 -14 -12 -16 0 -8 21 12 6 -56 -17 -73 -16 -13
-16 -14 2 -10 23 4 39 52 34 106 -3 36 -4 37 -48 40 -28 1 -60 -5 -85 -17z"/>
<path d="M4838 1673 c-10 -2 -18 -9 -18 -14 0 -6 5 -7 12 -3 6 4 39 10 72 14
l61 7 -55 0 c-30 1 -63 -1 -72 -4z"/>
<path d="M5013 1660 c57 -22 111 -76 140 -139 17 -38 21 -67 21 -161 1 -110
-1 -119 -30 -178 -16 -34 -24 -56 -17 -50 8 6 24 32 36 57 19 39 22 63 22 166
0 130 -13 176 -72 253 -26 35 -92 72 -128 71 -11 0 2 -8 28 -19z"/>
<path d="M1707 1663 c-9 -8 -9 -596 -1 -617 3 -9 16 -15 28 -15 17 1 18 2 3 6
-14 4 -16 8 -6 19 10 12 9 13 -4 8 -15 -5 -16 22 -16 294 0 227 3 302 12 305
7 3 8 6 1 6 -6 1 -14 -2 -17 -6z"/>
<path d="M4156 1661 c-4 -7 -5 -15 -2 -18 9 -9 19 4 14 18 -4 11 -6 11 -12 0z"/>
<path d="M3918 1624 c23 -22 42 -45 42 -51 0 -7 7 -18 15 -26 8 -8 21 -39 29
-68 13 -45 15 -47 10 -14 -11 80 -58 155 -114 185 -16 9 -10 0 18 -26z"/>
<path d="M4460 1649 c0 -5 5 -7 10 -4 6 3 10 8 10 11 0 2 -4 4 -10 4 -5 0 -10
-5 -10 -11z"/>
<path d="M4773 1635 c-15 -13 -23 -25 -17 -25 6 0 21 11 34 25 30 32 19 32
-17 0z"/>
<path d="M212 1623 c-19 -51 -25 -79 -14 -68 6 6 12 17 14 25 2 8 10 21 18 28
10 9 10 11 1 6 -10 -5 -11 -1 -6 15 9 31 -1 26 -13 -6z"/>
<path d="M5762 1631 c7 -11 19 -23 27 -26 25 -10 21 1 -10 24 -28 21 -29 21
-17 2z"/>
<path d="M3290 1625 c-7 -8 -10 -15 -6 -15 6 0 -13 -24 -73 -92 -19 -21 -32
-41 -29 -44 6 -6 108 117 107 129 0 5 8 15 18 23 10 7 13 14 7 14 -6 0 -17 -7
-24 -15z"/>
<path d="M2526 1616 c3 -9 10 -16 16 -16 5 0 6 -4 3 -10 -3 -5 -1 -10 4 -10 6
0 11 -8 11 -18 0 -10 4 -22 9 -27 23 -23 34 -466 12 -488 -4 -4 -30 -7 -57 -5
l-49 3 -5 195 -6 195 1 -200 0 -200 64 -3 c45 -2 67 1 72 10 12 18 11 273 -1
387 -10 95 -34 165 -64 190 -14 12 -16 12 -10 -3z"/>
<path d="M7240 1615 c-7 -8 -17 -12 -23 -8 -6 4 -7 1 -3 -6 6 -9 13 -8 27 5
10 9 19 19 19 21 0 7 -8 2 -20 -12z"/>
<path d="M322 1603 c-24 -46 -46 -137 -31 -128 5 4 9 15 9 25 0 11 9 42 20 70
19 48 20 68 2 33z"/>
<path d="M4153 1575 c0 -27 2 -38 4 -22 2 15 2 37 0 50 -2 12 -4 0 -4 -28z"/>
<path d="M5614 1602 c6 -9 -2 -11 -30 -8 -29 4 -46 -1 -78 -23 -23 -16 -45
-29 -49 -29 -5 0 -12 -4 -15 -8 -4 -4 -1 -3 7 1 11 6 13 4 7 -11 -5 -14 0 -12
22 9 40 38 94 56 142 47 56 -10 85 -32 110 -84 12 -26 23 -46 25 -46 2 0 2 11
1 24 0 13 -4 22 -8 19 -5 -2 -8 1 -8 6 0 19 -4 25 -41 58 -20 18 -43 33 -51
33 -8 0 -20 6 -27 13 -11 10 -13 9 -7 -1z"/>
<path d="M3695 1584 c-10 -8 -14 -14 -8 -14 7 0 14 4 17 9 3 5 14 8 24 6 64
-13 86 -15 77 -6 -17 17 -89 20 -110 5z"/>
<path d="M5812 1584 c46 -96 49 -106 37 -120 -10 -12 -10 -15 2 -12 10 2 14
-8 15 -39 1 -25 -3 -43 -10 -43 -6 0 -4 -5 4 -10 19 -12 34 -11 -207 -14 -112
-1 -206 -6 -210 -9 -3 -4 88 -7 203 -7 150 0 213 3 222 12 13 13 17 100 5 111
-3 4 -7 18 -9 31 -3 30 -32 94 -47 103 -5 3 -8 2 -5 -3z"/>
<path d="M7196 1582 c-3 -5 1 -9 9 -9 8 0 12 4 9 9 -3 4 -7 8 -9 8 -2 0 -6 -4
-9 -8z"/>
<path d="M3820 1575 c0 -3 13 -23 30 -43 16 -21 32 -52 36 -70 l7 -32 -154 -2
c-85 -1 -135 -3 -111 -5 29 -3 40 -8 36 -16 -5 -8 -3 -8 7 1 9 8 48 12 116 12
98 0 104 1 112 22 6 17 2 33 -17 63 -24 39 -62 82 -62 70z"/>
<path d="M4845 1573 c-23 -6 -82 -45 -83 -56 -1 -4 -8 -20 -15 -35 -16 -32
-24 -322 -9 -322 5 0 10 65 11 151 1 83 6 160 11 172 23 55 59 77 128 77 92 0
151 -64 159 -173 13 -160 -65 -246 -227 -247 -47 -1 -68 -4 -55 -9 34 -13 171
5 203 27 19 14 32 18 44 11 11 -6 19 -5 23 1 4 6 3 10 -2 9 -20 -3 -37 2 -28
9 42 31 67 178 44 259 -7 27 -12 51 -11 56 1 4 -5 7 -14 7 -8 0 -13 4 -10 9 6
9 -11 27 -29 32 -5 1 -24 8 -42 16 -33 13 -61 15 -98 6z"/>
<path d="M3620 1538 c-37 -39 -55 -68 -41 -68 5 0 12 9 16 20 3 11 23 33 43
50 20 16 32 30 25 30 -6 0 -25 -15 -43 -32z"/>
<path d="M2260 1549 c0 -3 19 -4 43 -2 65 8 113 -17 137 -69 11 -24 20 -38 20
-31 0 17 -23 67 -35 75 -6 5 -7 8 0 8 6 1 -8 7 -30 15 -40 15 -135 18 -135 4z"/>
<path d="M169 1473 c-20 -99 -18 -322 4 -403 36 -136 141 -304 242 -390 l40
-34 -37 40 c-21 22 -38 46 -38 53 0 6 -4 10 -9 6 -5 -3 -20 9 -32 27 -13 18
-32 42 -41 53 -10 10 -16 25 -14 32 3 7 -3 18 -13 25 -15 11 -53 72 -50 80 0
2 -5 17 -11 33 -7 17 -13 35 -14 40 -2 6 -9 30 -16 55 -20 63 -18 327 2 398 8
28 12 52 8 52 -4 0 -14 -30 -21 -67z"/>
<path d="M2197 1503 c-37 -43 -22 -43 20 0 18 19 27 34 20 33 -6 0 -25 -15
-40 -33z"/>
<path d="M4410 1530 c0 -6 11 -8 28 -4 39 10 40 14 4 14 -18 0 -32 -5 -32 -10z"/>
<path d="M6452 1505 c0 -16 2 -22 5 -12 2 9 2 23 0 30 -3 6 -5 -1 -5 -18z"/>
<path d="M7140 1515 c-7 -9 -11 -17 -9 -20 3 -2 10 5 17 15 14 24 10 26 -8 5z"/>
<path d="M4368 1509 c-10 -5 -18 -6 -18 -2 0 4 -6 -2 -13 -13 -6 -12 -19 -32
-28 -45 -10 -13 -20 -35 -24 -49 -3 -14 7 -3 22 25 15 27 43 60 62 72 34 23
32 32 -1 12z"/>
<path d="M3075 1500 c3 -5 8 -10 11 -10 2 0 4 5 4 10 0 6 -5 10 -11 10 -5 0
-7 -4 -4 -10z"/>
<path d="M3483 1495 c0 -7 6 -11 14 -8 7 3 13 6 13 8 0 2 -6 5 -13 8 -8 3 -14
-1 -14 -8z"/>
<path d="M4150 1267 c0 -152 4 -228 11 -233 16 -10 109 -8 120 3 10 10 -31 10
-47 0 -5 -3 -16 -2 -24 3 -7 4 -19 6 -25 4 -7 -3 -15 1 -18 8 -2 8 -4 107 -4
221 0 114 -3 210 -6 214 -4 3 -7 -95 -7 -220z"/>
<path d="M5427 1473 c-4 -3 -7 -11 -7 -17 0 -6 5 -5 12 2 6 6 9 14 7 17 -3 3
-9 2 -12 -2z"/>
<path d="M3162 1464 c8 -12 -17 -35 -28 -26 -4 4 -4 1 0 -5 4 -7 3 -13 -2 -13
-10 0 -25 -30 -19 -36 2 -2 18 14 35 35 22 27 28 42 20 47 -6 4 -9 3 -6 -2z"/>
<path d="M2563 1445 c0 -8 4 -12 9 -9 5 3 6 10 3 15 -9 13 -12 11 -12 -6z"/>
<path d="M3567 1440 c3 -11 7 -20 9 -20 2 0 4 9 4 20 0 11 -4 20 -9 20 -5 0
-7 -9 -4 -20z"/>
<path d="M6945 1451 c-3 -5 0 -13 6 -17 7 -4 9 -3 5 4 -3 5 0 13 6 15 9 4 10
6 1 6 -6 1 -14 -3 -18 -8z"/>
<path d="M272 1425 c0 -16 2 -22 5 -12 2 9 2 23 0 30 -3 6 -5 -1 -5 -18z"/>
<path d="M6452 1425 c0 -16 2 -22 5 -12 2 9 2 23 0 30 -3 6 -5 -1 -5 -18z"/>
<path d="M5595 1430 c-88 -3 -155 -7 -150 -9 28 -8 299 -1 308 8 6 6 9 10 7 9
-3 -1 -77 -5 -165 -8z"/>
<path d="M4012 1388 c-1 -21 -5 -38 -9 -39 -5 0 -102 -2 -216 -4 -115 -2 -212
-6 -215 -9 -3 -3 95 -6 217 -6 243 0 236 -2 228 62 l-4 33 -1 -37z"/>
<path d="M7067 1406 c-3 -8 1 -17 9 -20 9 -3 13 -9 11 -13 -2 -5 4 -16 15 -25
10 -10 18 -15 18 -10 0 4 7 -7 15 -23 21 -42 60 -85 91 -101 22 -12 25 -12 21
0 -3 7 0 19 6 25 16 16 32 14 18 -3 -6 -7 -9 -21 -5 -30 4 -11 0 -16 -14 -16
-11 0 -22 6 -25 13 -2 6 -7 9 -10 6 -4 -3 6 -21 22 -40 16 -19 32 -31 37 -26
4 4 3 7 -3 7 -6 0 -9 9 -6 20 5 20 7 20 24 4 11 -9 19 -23 19 -31 0 -21 17
-15 23 8 10 39 -69 137 -81 101 -2 -7 -9 -9 -14 -6 -7 4 -8 2 -4 -4 5 -8 -1
-12 -15 -12 -18 0 -19 2 -9 15 11 13 10 14 -6 8 -17 -6 -17 -5 -6 10 18 21 8
36 -21 30 -21 -4 -21 -3 3 11 24 14 24 15 3 13 -13 -1 -23 -5 -23 -10 0 -4 -5
-5 -10 -2 -6 4 -5 12 5 21 11 12 19 12 35 4 11 -6 18 -15 15 -21 -4 -5 -1 -9
4 -9 6 0 11 -6 11 -14 0 -19 14 -28 34 -20 13 5 14 9 5 20 -6 8 -18 14 -26 14
-8 0 -12 4 -8 9 3 6 -9 26 -26 45 -27 31 -33 34 -46 21 -8 -8 -11 -21 -8 -27
4 -7 -3 -2 -15 12 -12 14 -19 19 -15 13 3 -7 2 -13 -4 -13 -5 0 -9 9 -8 19 1
16 5 18 19 10 10 -5 18 -7 18 -5 0 5 -55 36 -63 36 -3 0 -7 -6 -10 -14z m129
-63 c-6 -6 -36 9 -36 18 0 5 9 4 20 -3 10 -7 18 -14 16 -15z m-2 -68 c-4 -8
-11 -12 -16 -9 -6 4 -5 10 3 15 19 12 19 11 13 -6z m56 5 c0 -5 -2 -10 -4 -10
-3 0 -8 5 -11 10 -3 6 -1 10 4 10 6 0 11 -4 11 -10z m50 -65 c7 -8 9 -15 4
-15 -4 0 1 -6 12 -14 10 -8 16 -18 11 -22 -4 -4 -7 -2 -7 5 0 7 -4 10 -9 6 -9
-5 -41 31 -41 47 0 13 17 9 30 -7z"/>
<path d="M262 1302 c-2 -68 -5 -91 -14 -86 -8 5 -8 3 -2 -7 5 -8 9 -23 10 -34
1 -11 6 -31 11 -45 6 -14 9 -33 7 -42 -1 -10 0 -18 4 -18 4 0 13 -19 21 -42 7
-24 21 -59 31 -78 10 -19 24 -45 29 -57 6 -13 15 -23 21 -23 6 0 9 -4 6 -8 -3
-5 17 -30 45 -55 28 -25 51 -55 52 -66 1 -16 4 -18 16 -8 12 10 14 9 8 -5 -3
-10 -1 -20 5 -24 7 -4 8 -3 4 4 -10 17 9 15 23 -1 6 -8 7 -18 3 -22 -4 -5 -1
-5 6 -1 8 5 27 -3 47 -18 18 -14 38 -26 43 -26 5 0 15 -6 21 -13 6 -8 29 -20
51 -27 21 -7 37 -17 34 -22 -3 -5 -2 -7 3 -6 4 1 33 -6 63 -17 30 -10 60 -20
66 -21 6 -1 22 -5 35 -9 16 -5 21 -4 14 3 -5 6 -23 13 -40 15 -71 12 -248 103
-335 172 -141 112 -245 268 -267 400 -3 17 -8 31 -11 32 -4 2 -6 38 -4 81 2
42 2 98 -1 122 -2 25 -4 3 -5 -48z"/>
<path d="M6838 1383 c7 -3 16 -2 19 1 4 3 -2 6 -13 5 -11 0 -14 -3 -6 -6z"/>
<path d="M3113 1343 c20 -16 34 -33 32 -40 -2 -7 1 -15 7 -19 7 -4 8 -3 4 4
-11 19 2 14 24 -8 11 -11 17 -20 14 -20 -4 0 5 -9 20 -21 14 -11 23 -25 20
-31 -4 -7 -2 -8 4 -4 6 3 15 -2 21 -11 5 -10 12 -15 15 -12 9 9 -166 189 -183
189 -8 0 2 -12 22 -27z"/>
<path d="M6773 1350 c3 -13 0 -20 -10 -20 -9 0 -13 6 -10 14 4 10 -4 13 -30
12 -37 -1 -54 -18 -32 -32 8 -5 11 -2 7 7 -4 10 1 15 13 15 11 0 19 -5 19 -11
0 -7 6 -12 13 -12 6 0 26 -3 42 -7 17 -3 23 -3 15 1 -20 11 -24 34 -8 44 10 6
8 9 -6 9 -13 0 -17 -5 -13 -20z"/>
<path d="M4284 1200 c0 -80 2 -112 3 -72 2 39 2 105 0 145 -1 39 -3 7 -3 -73z"/>
<path d="M6868 1333 c6 -2 18 -2 25 0 6 3 1 5 -13 5 -14 0 -19 -2 -12 -5z"/>
<path d="M6348 1232 c4 -153 9 -168 10 -35 1 67 -1 124 -5 126 -5 3 -7 -38 -5
-91z"/>
<path d="M6820 1320 c0 -5 7 -10 15 -10 8 0 15 5 15 10 0 6 -7 10 -15 10 -8 0
-15 -4 -15 -10z"/>
<path d="M3563 1288 c1 -20 5 -35 9 -32 4 3 8 -1 8 -8 0 -23 47 -65 104 -93
51 -25 62 -27 138 -22 46 4 99 9 119 12 32 6 37 4 42 -17 15 -53 7 -74 -25
-69 -5 0 -8 -3 -8 -9 0 -13 6 -13 31 0 23 13 26 76 6 104 -12 17 -16 17 -67 2
-155 -46 -302 8 -343 126 l-14 43 0 -37z"/>
<path d="M5420 1299 c0 -6 14 -36 31 -65 21 -37 45 -62 75 -80 43 -25 50 -26
154 -22 72 3 114 9 125 18 15 12 19 12 31 -5 16 -22 19 -75 4 -75 -5 0 -10 -4
-10 -10 0 -5 7 -7 15 -4 28 11 10 114 -20 114 -6 0 -33 -7 -58 -16 -73 -25
-202 -17 -250 16 -35 24 -77 91 -77 124 0 9 -4 16 -10 16 -5 0 -10 -5 -10 -11z"/>
<path d="M1185 1209 c-4 -6 -5 -12 -2 -15 2 -3 7 2 10 11 7 17 1 20 -8 4z"/>
<path d="M3283 1156 c0 -8 3 -14 6 -13 3 1 19 -11 35 -26 16 -15 26 -27 22
-27 -3 0 3 -9 14 -20 32 -32 24 -40 -42 -40 -65 0 -93 10 -93 32 0 7 -8 12
-18 10 -9 -2 -17 2 -17 8 0 5 -6 10 -12 10 -7 0 2 -15 20 -32 30 -31 38 -33
112 -36 73 -4 80 -3 80 15 0 11 -21 44 -46 74 -51 60 -61 67 -61 45z"/>
<path d="M3530 1139 c0 -6 -7 -9 -15 -5 -29 11 -14 -4 47 -49 34 -25 67 -44
74 -41 7 3 14 0 16 -6 8 -23 288 -22 288 2 0 4 -17 4 -37 0 -52 -12 -212 -5
-253 10 -3 1 -9 3 -15 4 -26 5 -64 30 -58 39 3 6 1 7 -5 3 -7 -4 -12 -2 -12 3
0 6 -7 11 -16 11 -11 0 -14 6 -9 20 3 11 4 20 1 20 -3 0 -6 -5 -6 -11z"/>
<path d="M6483 1135 c0 -8 4 -12 9 -9 5 3 6 10 3 15 -9 13 -12 11 -12 -6z"/>
<path d="M5085 1111 c-3 -12 -9 -21 -13 -21 -4 0 -18 -10 -32 -21 l-25 -20 32
16 c31 14 60 51 50 62 -3 2 -8 -5 -12 -16z"/>
<path d="M7278 1118 c5 -5 16 -8 23 -6 8 3 3 7 -10 11 -17 4 -21 3 -13 -5z"/>
<path d="M7357 1124 c-13 -13 -7 -26 9 -20 10 4 23 -1 31 -11 14 -16 14 -15 1
6 -16 27 -30 35 -41 25z"/>
<path d="M220 1081 c0 -6 4 -13 10 -16 6 -3 7 1 4 9 -7 18 -14 21 -14 7z"/>
<path d="M1747 1080 c7 -8 23 -15 35 -17 12 -2 19 -1 16 3 -3 3 -12 6 -20 8
-7 1 -20 5 -28 10 -12 7 -13 6 -3 -4z"/>
<path d="M6617 1076 c-4 -9 -3 -15 1 -15 23 4 34 -3 28 -17 -6 -14 -4 -15 9
-4 15 12 15 14 -2 23 -10 6 -21 14 -24 19 -3 6 -9 3 -12 -6z"/>
<path d="M7308 1075 c17 -29 38 -55 46 -55 4 0 4 5 1 10 -4 7 3 8 21 4 19 -5
25 -4 20 5 -4 6 -17 11 -28 11 -12 0 -33 10 -46 23 -22 20 -23 20 -14 2z"/>
<path d="M5526 1068 c3 -5 10 -6 15 -3 13 9 11 12 -6 12 -8 0 -12 -4 -9 -9z"/>
<path d="M4994 1063 c4 -8 -5 -16 -26 -23 l-33 -10 34 5 c42 6 48 12 31 28
-10 9 -11 9 -6 0z"/>
<path d="M6351 1063 c0 -5 4 -17 9 -28 8 -17 8 -16 7 8 -1 15 -5 27 -9 27 -4
0 -8 -3 -7 -7z"/>
<path d="M6617 1030 c10 -11 21 -20 25 -20 4 0 0 9 -9 20 -10 11 -21 20 -25
20 -4 0 0 -9 9 -20z"/>
<path d="M6689 1024 c6 -21 5 -36 -2 -43 -6 -6 -9 -13 -6 -15 2 -2 11 6 21 18
15 21 15 24 -3 47 l-19 24 9 -31z"/>
<path d="M6720 1026 c0 -2 8 -10 18 -17 15 -13 16 -12 3 4 -13 16 -21 21 -21
13z"/>
<path d="M7378 982 c26 -36 29 -38 29 -19 0 7 -12 21 -26 32 l-25 19 22 -32z"/>
<path d="M6364 992 c4 -7 18 -12 31 -12 13 0 36 -5 51 -10 22 -9 25 -8 16 3
-6 7 -28 14 -48 15 -21 2 -42 6 -47 9 -6 3 -7 1 -3 -5z"/>
<path d="M6486 963 c-6 -6 47 -33 64 -33 13 0 20 29 8 36 -6 4 -8 3 -4 -4 11
-19 -14 -24 -38 -8 -13 8 -27 12 -30 9z"/>
<path d="M6840 949 c0 -5 5 -7 10 -4 6 3 10 8 10 11 0 2 -4 4 -10 4 -5 0 -10
-5 -10 -11z"/>
<path d="M6880 930 c8 -5 20 -10 25 -10 6 0 3 5 -5 10 -8 5 -19 10 -25 10 -5
0 -3 -5 5 -10z"/>
<path d="M6773 912 c-8 -5 2 -16 31 -34 29 -17 43 -21 43 -12 0 7 -5 10 -10 7
-7 -4 -8 1 -3 13 6 15 5 16 -5 7 -14 -14 -53 2 -44 18 7 11 4 11 -12 1z"/>
<path d="M7437 909 c7 -7 15 -10 18 -7 3 3 -2 9 -12 12 -14 6 -15 5 -6 -5z"/>
<path d="M7554 892 c-1 -15 1 -21 3 -14 5 14 23 16 23 3 0 -5 -8 -17 -17 -27
-16 -16 -16 -16 7 -9 14 4 30 12 35 17 6 6 4 7 -8 2 -12 -4 -16 -2 -12 8 3 8
-2 22 -12 30 -17 16 -18 15 -19 -10z"/>
<path d="M7516 898 c3 -5 10 -6 15 -3 13 9 11 12 -6 12 -8 0 -12 -4 -9 -9z"/>
<path d="M305 890 c-3 -6 1 -7 9 -4 18 7 21 14 7 14 -6 0 -13 -4 -16 -10z"/>
<path d="M6993 888 c15 -5 27 -13 27 -18 0 -4 9 -6 21 -3 18 5 15 8 -17 19
-22 8 -43 13 -49 13 -5 0 2 -5 18 -11z"/>
<path d="M7491 893 c3 -20 -2 -34 -11 -28 -6 4 -7 11 -4 17 5 7 2 8 -5 4 -9
-6 -8 -13 5 -27 9 -10 21 -16 25 -13 5 3 9 0 9 -7 0 -7 3 -9 6 -6 4 4 1 13 -5
21 -7 8 -10 20 -7 25 4 5 2 13 -4 16 -6 4 -10 3 -9 -2z"/>
<path d="M7071 867 c2 -1 11 -8 21 -15 12 -10 18 -10 24 -1 4 8 3 9 -4 5 -7
-4 -12 -2 -12 3 0 6 -7 11 -17 11 -9 0 -14 -1 -12 -3z"/>
<path d="M6860 851 c0 -5 7 -12 16 -15 14 -5 15 -4 4 9 -14 17 -20 19 -20 6z"/>
<path d="M7170 839 c0 -5 11 -9 25 -9 14 0 25 2 25 4 0 2 -11 6 -25 8 -14 3
-25 1 -25 -3z"/>
<path d="M6925 820 c3 -5 8 -10 11 -10 2 0 4 5 4 10 0 6 -5 10 -11 10 -5 0 -7
-4 -4 -10z"/>
<path d="M7245 820 c4 -6 13 -9 21 -6 8 3 14 1 14 -3 0 -5 9 -7 21 -4 12 3 24
2 28 -3 3 -5 22 -7 41 -3 28 5 30 7 10 8 -14 2 -33 4 -42 6 -81 15 -100 17
-93 5z"/>
<path d="M7019 818 c-8 -27 -4 -37 16 -42 13 -3 31 -8 42 -11 10 -4 2 2 -17
13 -19 10 -34 24 -32 30 2 10 -6 18 -9 10z"/>
<path d="M7656 802 c20 -17 20 -20 5 -31 -14 -10 -13 -10 4 -2 14 7 23 5 33
-7 12 -15 12 -15 3 4 -6 12 -23 29 -38 38 -28 17 -28 17 -7 -2z"/>
<path d="M4185 790 c-237 -12 -652 -49 -679 -61 -20 -9 97 -4 134 6 8 2 83 9
165 15 83 6 160 13 173 15 46 8 421 20 602 20 342 0 499 -6 504 -18 3 -9 5 -9
5 0 1 8 11 11 29 8 15 -2 101 -7 192 -10 162 -5 275 -10 435 -20 247 -16 652
-30 645 -22 -3 2 -72 7 -155 11 -82 3 -278 13 -435 21 -157 9 -370 20 -475 25
-284 14 -935 20 -1140 10z"/>
<path d="M7416 785 c2 -5 19 -10 37 -11 17 -1 26 1 19 3 -6 3 -10 8 -8 11 2 4
-8 7 -24 7 -15 1 -26 -4 -24 -10z"/>
<path d="M7365 779 c-3 -3 3 -13 13 -20 9 -7 14 -9 10 -5 -4 5 -3 14 2 21 7 8
5 12 -6 12 -8 0 -17 -4 -19 -8z"/>
<path d="M7130 750 c8 -5 22 -9 30 -9 10 0 8 3 -5 9 -27 12 -43 12 -25 0z"/>
<path d="M7185 750 c-7 -11 22 -26 32 -16 4 3 -1 6 -11 6 -9 0 -14 5 -11 10 3
6 4 10 1 10 -3 0 -8 -5 -11 -10z"/>
<path d="M7285 731 c-17 -7 -16 -9 9 -15 16 -4 33 -3 39 3 7 7 2 8 -14 5 -19
-5 -21 -4 -9 5 17 12 4 13 -25 2z"/>
<path d="M3376 719 c-38 -5 -83 -14 -100 -19 -27 -8 -24 -9 19 -5 88 7 145 17
151 26 3 5 4 8 2 8 -2 -1 -34 -6 -72 -10z"/>
<path d="M7367 715 c3 -8 9 -12 14 -9 12 7 11 11 -5 17 -10 4 -13 1 -9 -8z"/>
<path d="M7684 710 c0 -13 4 -16 10 -10 7 7 7 13 0 20 -6 6 -10 3 -10 -10z"/>
<path d="M6412 714 c9 -3 19 -13 22 -22 3 -12 4 -12 3 3 -1 12 -10 21 -22 22
-15 1 -15 0 -3 -3z"/>
<path d="M3127 685 c-71 -12 -112 -25 -76 -25 30 1 180 28 186 34 9 8 -19 6
-110 -9z"/>
<path d="M7513 693 c9 -2 25 -2 35 0 9 3 1 5 -18 5 -19 0 -27 -2 -17 -5z"/>
<path d="M4240 688 c-3 -3 -72 -9 -155 -12 -82 -4 -179 -11 -215 -16 -62 -8
-60 -9 25 -5 50 3 187 10 305 16 195 10 928 6 1015 -6 17 -2 91 -6 165 -9 74
-3 250 -12 390 -20 300 -17 688 -29 520 -16 -58 4 -153 9 -212 10 -60 1 -108
5 -108 9 0 3 -32 4 -71 3 -57 -3 -70 -1 -64 10 6 10 5 11 -6 1 -15 -15 -33
-18 -25 -5 3 5 -1 9 -9 9 -8 0 -12 -4 -9 -9 3 -5 -5 -7 -18 -4 -29 6 -149 14
-348 22 -85 3 -168 8 -185 10 -48 6 -989 17 -995 12z"/>
<path d="M2975 659 c-71 -11 -97 -17 -104 -25 -3 -4 11 -4 32 0 25 5 37 4 33
-3 -4 -5 -2 -12 3 -16 6 -3 8 3 6 14 -3 18 1 20 35 17 26 -2 41 1 44 10 3 8 4
13 3 13 -1 -1 -24 -5 -52 -10z"/>
<path d="M6423 645 c-6 -14 -7 -25 -2 -25 11 0 22 25 17 39 -1 6 -8 -1 -15
-14z"/>
<path d="M467 643 c-3 -5 18 -25 47 -45 34 -24 53 -32 53 -23 0 8 -3 12 -7 10
-8 -5 -70 38 -81 56 -3 6 -9 7 -12 2z"/>
<path d="M3573 643 c4 -7 0 -14 -10 -17 -21 -6 96 3 182 14 l60 7 -65 1 c-36
1 -83 -3 -105 -8 -28 -6 -44 -5 -54 3 -11 9 -13 9 -8 0z"/>
<path d="M2797 630 c-54 -10 -54 -17 2 -16 27 1 47 4 45 8 -2 3 2 9 8 11 19 8
-9 6 -55 -3z"/>
<path d="M2710 610 c-23 -7 -23 -8 -3 -9 12 -1 25 4 28 9 3 6 5 10 3 9 -2 -1
-14 -5 -28 -9z"/>
<path d="M3458 613 c12 -2 30 -2 40 0 9 3 -1 5 -23 4 -22 0 -30 -2 -17 -4z"/>
<path d="M2655 604 c-76 -15 -124 -28 -121 -32 7 -7 146 22 146 30 0 4 -1 7
-2 7 -2 -1 -12 -3 -23 -5z"/>
<path d="M3378 603 c12 -2 30 -2 40 0 9 3 -1 5 -23 4 -22 0 -30 -2 -17 -4z"/>
<path d="M3089 598 c-7 -25 -5 -38 8 -38 12 0 13 3 4 13 -6 8 -8 17 -4 20 3 4
3 7 0 7 -4 0 -7 -1 -8 -2z"/>
<path d="M3328 593 c7 -3 16 -2 19 1 4 3 -2 6 -13 5 -11 0 -14 -3 -6 -6z"/>
<path d="M3117 573 c6 -15 19 -17 28 -3 3 5 13 6 23 3 9 -3 14 -3 10 1 -4 4
-20 9 -36 10 -21 1 -28 -2 -25 -11z"/>
<path d="M3243 583 c9 -2 23 -2 30 0 6 3 -1 5 -18 5 -16 0 -22 -2 -12 -5z"/>
<path d="M2475 570 c-22 -5 -77 -14 -122 -22 -46 -8 -86 -18 -90 -22 -4 -4 13
-3 37 1 25 4 60 8 78 8 17 0 32 4 32 9 0 4 7 6 15 3 8 -4 17 -2 20 2 3 5 18 8
35 7 17 -1 32 4 34 11 3 7 4 12 3 12 -1 -1 -20 -5 -42 -9z"/>
<path d="M3015 554 l-50 -14 45 6 c25 3 49 9 55 15 5 5 7 8 5 8 -3 -1 -27 -8
-55 -15z"/>
<path d="M580 557 c8 -8 82 -48 107 -58 45 -17 22 2 -34 29 -69 32 -80 36 -73
29z"/>
<path d="M2923 533 c9 -2 23 -2 30 0 6 3 -1 5 -18 5 -16 0 -22 -2 -12 -5z"/>
<path d="M2825 520 c-27 -7 -27 -8 -5 -8 14 0 39 4 55 8 27 7 27 8 5 8 -14 0
-38 -4 -55 -8z"/>
<path d="M955 511 c30 -13 113 -24 95 -13 -8 5 -37 12 -65 16 -31 3 -43 3 -30
-3z"/>
<path d="M2148 511 c-31 -3 -60 -10 -64 -14 -9 -9 97 2 136 14 30 9 12 9 -72
0z"/>
<path d="M2775 510 c-3 -5 -1 -10 4 -10 6 0 11 5 11 10 0 6 -2 10 -4 10 -3 0
-8 -4 -11 -10z"/>
<path d="M2687 499 c7 -7 15 -10 18 -7 3 3 -2 9 -12 12 -14 6 -15 5 -6 -5z"/>
<path d="M734 478 c10 -6 22 -6 26 -2 5 5 -3 10 -18 11 -22 1 -24 0 -8 -9z"/>
<path d="M1066 481 c-3 -4 6 -6 19 -3 14 2 25 6 25 8 0 8 -39 4 -44 -5z"/>
<path d="M1994 481 c5 -8 56 -3 56 5 0 2 -14 4 -31 4 -16 0 -28 -4 -25 -9z"/>
<path d="M2575 477 c-9 -5 -23 -6 -30 -3 -8 3 -17 0 -21 -6 -5 -7 4 -9 27 -4
19 3 52 9 74 12 22 3 42 8 45 11 8 8 -79 -1 -95 -10z"/>
<path d="M1124 468 c-4 -7 -4 -10 1 -6 4 4 15 2 23 -5 13 -9 14 -9 8 1 -4 7
-1 12 8 12 9 0 16 -5 16 -11 0 -5 5 -7 10 -4 6 3 10 10 10 16 0 14 -68 11 -76
-3z"/>
<path d="M1868 475 c-7 -7 -78 -13 -172 -14 -44 -1 -77 -4 -73 -7 10 -11 178
-5 272 10 86 13 88 14 34 15 -31 0 -58 -1 -61 -4z"/>
<path d="M1230 465 c0 -7 30 -13 34 -7 3 4 -4 9 -15 9 -10 1 -19 0 -19 -2z"/>
<path d="M805 450 c27 -12 43 -12 25 0 -8 5 -22 9 -30 9 -10 0 -8 -3 5 -9z"/>
<path d="M1323 453 c15 -2 37 -2 50 0 12 2 0 4 -28 4 -27 0 -38 -2 -22 -4z"/>
<path d="M1432 455 c9 -10 111 -13 132 -5 14 6 -5 9 -58 9 -44 1 -77 -1 -74
-4z"/>
<path d="M2430 450 l-25 -8 28 -1 c15 -1 27 4 27 9 0 6 -1 10 -2 9 -2 -1 -14
-5 -28 -9z"/>
<path d="M2488 453 c7 -3 16 -2 19 1 4 3 -2 6 -13 5 -11 0 -14 -3 -6 -6z"/>
<path d="M888 423 c7 -3 16 -2 19 1 4 3 -2 6 -13 5 -11 0 -14 -3 -6 -6z"/>
<path d="M2256 422 c-3 -4 4 -9 15 -9 23 -2 25 3 4 10 -8 4 -16 3 -19 -1z"/>
<path d="M2308 423 c6 -2 18 -2 25 0 6 3 1 5 -13 5 -14 0 -19 -2 -12 -5z"/>
<path d="M957 409 c7 -7 15 -10 18 -7 3 3 -2 9 -12 12 -14 6 -15 5 -6 -5z"/>
<path d="M2219 416 c-2 -2 -25 -6 -52 -8 -26 -3 -51 -8 -55 -13 -10 -10 101 5
113 16 5 5 7 9 4 9 -3 0 -8 -2 -10 -4z"/>
<path d="M1000 400 c0 -5 10 -10 23 -10 18 0 19 2 7 10 -19 13 -30 13 -30 0z"/>
<path d="M2074 401 c-5 -5 -18 -11 -29 -14 -11 -3 -4 -5 18 -6 20 0 37 3 37 8
0 15 -16 21 -26 12z"/>
<path d="M1050 388 c0 -4 14 -8 30 -8 17 0 30 2 30 4 0 2 -13 6 -30 8 -16 3
-30 1 -30 -4z"/>
<path d="M1138 373 c6 -2 18 -2 25 0 6 3 1 5 -13 5 -14 0 -19 -2 -12 -5z"/>
<path d="M1963 373 c9 -2 25 -2 35 0 9 3 1 5 -18 5 -19 0 -27 -2 -17 -5z"/>
<path d="M1208 363 c12 -2 30 -2 40 0 9 3 -1 5 -23 4 -22 0 -30 -2 -17 -4z"/>
<path d="M1863 363 c15 -2 37 -2 50 0 12 2 0 4 -28 4 -27 0 -38 -2 -22 -4z"/>
<path d="M1303 353 c9 -2 23 -2 30 0 6 3 -1 5 -18 5 -16 0 -22 -2 -12 -5z"/>
<path d="M1363 353 c9 -2 25 -2 35 0 9 3 1 5 -18 5 -19 0 -27 -2 -17 -5z"/>
<path d="M1435 350 c-2 -3 40 -7 93 -9 53 -1 94 0 92 3 -8 7 -181 13 -185 6z"/>
<path d="M1645 350 c-13 -6 -15 -9 -5 -9 8 0 22 4 30 9 18 12 2 12 -25 0z"/>
<path d="M1728 353 c17 -2 47 -2 65 0 17 2 3 4 -33 4 -36 0 -50 -2 -32 -4z"/>
</g>
</svg>
